{"title":"The Fundamentals Of Caring 2016 Movies HDRip XviD ESubs ~ ☻rDX☻","uid":15091332,"size":738812580,"categoryP":"video","categoryS":"movies","magnet":"?xt=urn:btih:f2288008240b94fa100dd48231e36a063c936765&amp;dn=The+Fundamentals+Of+Caring+2016+Movies+HDRip+XviD+ESubs+%7E+%E2%98%BBrDX%E2%98%BB&amp;tr=udp%3A%2F%2Ftracker.leechers-paradise.org%3A6969&amp;tr=udp%3A%2F%2Fzer0day.ch%3A1337&amp;tr=udp%3A%2F%2Fopen.demonii.com%3A1337&amp;tr=udp%3A%2F%2Ftracker.coppersurfer.tk%3A6969&amp;tr=udp%3A%2F%2Fexodus.desync.com%3A6969","seeders":0,"leechers":0,"uploader":"basicssom","files":3,"time":1466902673,"description":"----------------------------------------------------------------\r\nThe Fundamentals Of Caring 2016 English Movies HDRip XviD ESubs AAC New Source with Sample ☻rDX☻\r\n\r\nSCREEN SHOTS &amp; POSTER:\r\n  \nhttp://mobileshosting.com/2016/6/calling/index.htm  \nhttp://mobileshosting.com/2016/6/calling/1.html  \nhttp://mobileshosting.com/2016/6/calling/2.html  \nhttp://mobileshosting.com/2016/6/calling/3.html  \nhttp://mobileshosting.com/2016/6/calling/4.html  \nhttp://mobileshosting.com/2016/6/calling/5.html  \nhttp://mobileshosting.com/2016/6/calling/6.html  \nhttp://mobileshosting.com/2016/6/calling/7.html  \nhttp://mobileshosting.com/2016/6/calling/8.html  \nhttp://mobileshosting.com/2016/6/calling/9.html  \nhttp://mobileshosting.com/2016/6/calling/10.html\r\n\r\nFormat                                   : Matroska\r\nFormat version                           : Version 4 / Version 2\r\nFile size                                : 690 MiB\r\nDuration                                 : 1h 33mn\r\nOverall bit rate                         : 1 032 Kbps\r\nMovie name                               : The Fundamentals Of Caring 2016 English Movies HDRip XviD ESubs AAC New Source ☻rDX☻\r\n\r\nVideo\r\nID                                       : 1\r\nFormat                                   : MPEG-4 Visual\r\nFormat profile                           : Advanced   \r\nFormat settings, BVOP                    : Yes\r\nFormat settings, QPel                    : No\r\nFormat settings, GMC                     : No warppoints\r\nFormat settings, Matrix                  : Default (H.263)\r\nCodec ID                                 : V_MS/VFW/FOURCC / XVID\r\nCodec ID/Hint                            : XviD\r\nDuration                                 : 1h 33mn\r\nBit rate                                 : 884 Kbps\r\nWidth                                    : 640 pixels\r\nHeight                                   : 272 pixels\r\nDisplay aspect ratio                     : 2.35:1\r\nFrame rate mode                          : Constant\r\nFrame rate                               : 23.976 fps\r\nColor space                              : YUV\r\nChroma subsampling                       : 4:2:0\r\nBit depth                                : 8 bits\r\nScan type                                : Progressive\r\nCompression mode                         : Lossy\r\nBits/(Pixel*Frame)                       : 0.212\r\nStream size                              : 591 MiB (86%)\r\nTitle                                    : ☻rDX☻\r\nWriting library                          : XviD 65\r\nDefault                                  : Yes\r\nForced                                   : No\r\n\r\nAudio\r\nID                                       : 2\r\nFormat                                   : MPEG Audio\r\nFormat version                           : Version 1\r\nFormat profile                           : Layer 3\r\nMode                                     : Joint stereo\r\nCodec ID                                 : A_MPEG/L3\r\nCodec ID/Hint                            : MP3\r\nDuration                                 : 1h 37mn\r\nBit rate mode                            : Constant\r\nBit rate                                 : 128 Kbps\r\nChannel(s)                               : 2 channels\r\nSampling rate                            : 48.0 KHz\r\nCompression mode                         : Lossy\r\nStream size                              : 89.0 MiB (13%)\r\nTitle                                    : ☻rDX☻\r\nWriting library                          : LAME3.99r\r\nEncoding settings                        : -m j -V 4 -q 3 -lowpass 17 -b 128\r\nDefault                                  : Yes\r\nForced                                   : No\r\n\r\nIMDB \nhttp://www.imdb.com/title/tt2452386/","torrent":{"xt":"urn:btih:f2288008240b94fa100dd48231e36a063c936765","amp;dn":"The+Fundamentals+Of+Caring+2016+Movies+HDRip+XviD+ESubs+%7E+%E2%98%BBrDX%E2%98%BB","amp;tr":["udp%3A%2F%2Ftracker.leechers-paradise.org%3A6969","udp%3A%2F%2Fzer0day.ch%3A1337","udp%3A%2F%2Fopen.demonii.com%3A1337","udp%3A%2F%2Ftracker.coppersurfer.tk%3A6969","udp%3A%2F%2Fexodus.desync.com%3A6969"],"infoHash":"f2288008240b94fa100dd48231e36a063c936765","infoHashBuffer":{"type":"Buffer","data":[242,40,128,8,36,11,148,250,16,13,212,130,49,227,106,6,60,147,103,101]},"announce":[],"urlList":[]}}